<svg width="127" height="100" viewBox="0 0 127 100" fill="none" xmlns="http://www.w3.org/2000/svg">
    <path d="M63.262 6.251c17.438 0 31.634 14.023 31.634 31.25 0 6.777-.93 10.566-6.88 19.824l5.002 3.886c6.603-10.195 8.205-15.273 8.205-23.71 0-20.625-17.083-37.5-37.96-37.5-12.2 0-23.074 5.8-30.033 14.707l5.022 3.906c5.773-7.46 14.788-12.363 25.01-12.363zm14.63 43.183c2.69-3.222 4.35-7.343 4.35-11.933 0-10.508-8.343-18.75-18.98-18.75-6.307 0-11.764 2.949-15.184 7.5l4.962 3.867C55.315 27.013 58.992 25 63.263 25c7.098 0 12.654 5.488 12.654 12.5 0 3.125-1.147 5.898-3.006 8.066l4.983 3.867zm-4.25 28.555c-3.064 4.296-6.544 9.16-10.38 14.59a3340.088 3340.088 0 0 0-10.38-14.59C33.724 51.172 31.63 47.871 31.63 37.5c0-.059.02-.098.02-.157l-5.991-4.668a35.314 35.314 0 0 0-.356 4.825c0 15 5.061 19.375 34.164 60.624A4.737 4.737 0 0 0 63.262 100a4.737 4.737 0 0 0 3.796-1.875c6.09-8.613 11.072-15.566 15.224-21.406L77.3 72.852a849.543 849.543 0 0 1-3.658 5.136zm52.294 16.777L4.542.353c-.672-.547-1.68-.45-2.214.234L.35 3.028a1.538 1.538 0 0 0 .237 2.188l121.394 94.432c.672.547 1.681.43 2.215-.234l1.977-2.441a1.546 1.546 0 0 0-.238-2.207z" fill="#E2E2E2"/>
</svg>
