<svg width="16" height="13" viewBox="0 0 16 13" fill="none" xmlns="http://www.w3.org/2000/svg">
    <path d="m15.925 3.993-.478-.476a.257.257 0 0 0-.364 0l-2.578 2.57-1.185-1.182a.257.257 0 0 0-.365 0l-.48.476c-.1.101-.1.262 0 .364l1.845 1.842c.1.101.265.101.365 0l3.24-3.23c.1-.099.1-.263 0-.364zM5.6 7.138c1.988 0 3.6-1.599 3.6-3.569S7.588 0 5.6 0C3.613 0 2 1.599 2 3.569s1.612 3.569 3.6 3.569zm0-5.948C6.923 1.19 8 2.258 8 3.569s-1.077 2.38-2.4 2.38c-1.322 0-2.4-1.069-2.4-2.38s1.077-2.38 2.4-2.38zm2.24 6.344c-.72 0-1.06.397-2.24.397-1.177 0-1.52-.397-2.24-.397C1.505 7.534 0 9.027 0 10.866v.634c0 .657.537 1.19 1.2 1.19H10c.662 0 1.2-.533 1.2-1.19v-.634c0-1.84-1.505-3.332-3.36-3.332zM10 11.5H1.2v-.634c0-1.18.97-2.142 2.16-2.142.365 0 .958.397 2.24.397 1.293 0 1.873-.397 2.24-.397 1.19 0 2.16.962 2.16 2.142v.634z" fill="#fff"/>
</svg>
