<svg width="35" height="50" viewBox="0 0 35 50" fill="none" xmlns="http://www.w3.org/2000/svg">
    <path fill-rule="evenodd" clip-rule="evenodd" d="M5.126 5.126A17.5 17.5 0 0 1 35 17.5C35 30.625 17.5 50 17.5 50S0 30.625 0 17.5A17.5 17.5 0 0 1 5.126 5.126zM17.5 30.189c6.792 0 12.297-5.491 12.297-12.265 0-6.773-5.505-12.264-12.297-12.264-6.792 0-12.297 5.491-12.297 12.264 0 6.774 5.505 12.265 12.297 12.265z" fill="#6BAE33"/>
    <path d="M10 10v5.454h1.364v1.364h1.363v-1.364h2.727V10H10zm5.454 5.454v1.364h1.364v1.364h-2.727v1.364H10V25h5.454v-5.454h4.091v-1.364h-1.363v-1.364h2.727v-1.364h1.364v1.364h1.363v-1.364H25V10h-5.454v5.454h-4.091zm8.182 1.364v1.364H25v-1.364h-1.364zm0 1.364h-1.363v1.364h1.363v-1.364zm0 1.364v1.363H25v-1.363h-1.364zm0 1.363h-1.363v-1.363h-1.364v1.363H17.5V25h1.364v-2.727h2.727v1.363h1.363v-1.363h.682v-1.364zm-2.045 2.727h-1.364V25h1.364v-1.364zm.682-5.454v-1.364h-1.364v1.364h1.364zm-8.182 0v-1.364h-1.364v1.364h1.364zm-2.727-1.364H10v1.364h1.364v-1.364zM16.818 10v2.727h-.682v1.364h.682v.682h1.364v-2.046h.682v-1.363h-.682V10h-1.364zm-5.454 1.364h2.727v2.727h-2.727v-2.727zm9.545 0h2.727v2.727H20.91v-2.727zm-8.863.681v1.364h1.363v-1.364h-1.364zm9.545 0v1.364h1.363v-1.364h-1.363zM11.364 20.91h2.727v2.727h-2.727V20.91zm.681.682v1.363h1.364v-1.363h-1.364zm11.591 2.045V25H25v-1.364h-1.364z" fill="#000"/>
</svg>
