<svg width="23" height="23" viewBox="0 0 23 23" fill="none" xmlns="http://www.w3.org/2000/svg">
    <path d="M5.5 16.47H6v-5.735h-.5c-.276 0-.5-.256-.5-.573v-.383c0-.316.224-.573.5-.573h2c.276 0 .5.257.5.573v6.692h.5c.276 0 .5.256.5.573v.383c0 .316-.224.573-.5.573h-3c-.276 0-.5-.257-.5-.573v-.383c0-.317.224-.573.5-.573zM7 5c-.736 0-1.333.685-1.333 1.53 0 .844.597 1.529 1.333 1.529s1.333-.685 1.333-1.53C8.333 5.685 7.736 5 7 5zM12.796 3.005v7.354h7.4V3.005h-7.4zm6.166 6.129h-4.933V4.23h4.933v4.904zm-1.233-1.226h-2.467V5.456h2.467v2.452zm1.233 4.903h1.233v4.903h-4.933v-1.226H14.03v3.678h-1.233V12.81h3.7v1.226h2.466V12.81zm0 6.129h1.233v1.226h-1.233V18.94zm-2.467 0h1.234v1.226h-1.234V18.94zM8.224 0H.693A.695.695 0 0 0 0 .688v7.486a.343.343 0 0 0 .346.345h.693a.347.347 0 0 0 .346-.345V1.377h6.84a.347.347 0 0 0 .345-.344V.344A.343.343 0 0 0 8.224 0z" fill="#fff"/>
    <path d="M14.776.1h7.531c.184 0 .36.073.49.202.13.13.203.305.203.487v7.486a.343.343 0 0 1-.346.344h-.693a.347.347 0 0 1-.346-.344V1.478h-6.84a.347.347 0 0 1-.345-.345V.445a.343.343 0 0 1 .346-.344zM14.776 23h7.531c.184 0 .36-.073.49-.202a.687.687 0 0 0 .203-.486v-7.486a.343.343 0 0 0-.346-.345h-.693a.347.347 0 0 0-.346.345v6.797h-6.84a.347.347 0 0 0-.345.345v.688a.343.343 0 0 0 .346.344zM8.224 22.9H.693A.695.695 0 0 1 0 22.21v-7.485a.343.343 0 0 1 .346-.344h.693a.347.347 0 0 1 .346.344v6.798h6.84a.347.347 0 0 1 .345.344v.688a.343.343 0 0 1-.346.344z" fill="#fff"/>
</svg>
