<svg width="52" height="60" viewBox="0 0 52 60" fill="none" xmlns="http://www.w3.org/2000/svg">
<path fill-rule="evenodd" clip-rule="evenodd" d="M5.62357 21.9028C8.97869 22.0899 17.6156 22.4816 25.3223 22.5507C33.029 22.6199 42.2995 22.1475 45.9714 21.9028C47.5986 21.082 50.8183 19.1035 50.6801 17.7556C50.5073 16.0709 48.0018 10.023 45.9714 8.20867C43.9411 6.39432 29.4262 0.0872652 25.8407 0.000867259C22.2552 -0.0855307 7.56752 6.30792 5.62357 8.20867C3.67961 10.1094 0.482887 15.9413 0.698882 17.7556C0.871678 19.2071 4.054 21.1252 5.62357 21.9028ZM25.6036 5.27584C22.7626 5.37181 20.2968 6.84914 19.404 7.76888C19.404 9.29846 19.4122 11.3679 19.7351 13.3173C20.0579 15.2668 22.0524 17.2462 22.9552 17.966C23.6474 18.5179 24.5502 19.0757 25.8142 19.5556C26.3258 19.3756 26.6825 19.0835 27.8908 18.3859C29.4557 17.4824 30.9905 16.1328 31.6526 13.7635C32.1823 11.868 32.1141 8.62864 31.8934 7.46897C30.9905 6.56922 28.4445 5.17987 25.6036 5.27584Z" fill="#6BAE33"/>
<path d="M5.79652 31.9245C5.34725 29.609 5.35013 26.2366 5.40773 24.8398C10.6204 25.1134 22.0134 25.6433 25.884 25.5742C29.7546 25.5051 40.6581 25.0558 45.4963 24.8398C45.5827 26.611 45.4445 30.5076 45.2372 31.9245C44.978 33.6956 44.4164 36.3308 43.4228 36.806C42.4292 37.2812 41.6516 32.9181 41.3924 31.9245C41.1333 30.9309 41.1764 30.4125 40.1829 31.1037C39.1893 31.7949 33.055 34.9916 25.884 34.8188C19.4714 34.6643 12.4491 31.9245 11.11 31.1037C9.77079 30.2829 10.0815 31.4925 9.81399 32.5293C9.46839 33.8684 9.59799 36.806 8.25882 36.806C6.91965 36.806 6.35811 34.8188 5.79652 31.9245Z" fill="#6BAE33"/>
<path d="M4.45749 37.8428C2.98873 36.8492 2.90233 35.078 2.85913 32.1837C2.85913 31.9821 2.98009 31.216 3.46393 29.7645C4.06874 27.9501 5.66707 27.9502 7.30864 27.5614C8.95022 27.1726 9.38218 25.963 7.78383 25.2718C6.18549 24.5807 4.45749 24.9694 2.85913 26.2222C1.26077 27.4749 0.0511988 30.2829 0.00799981 32.1837C-0.0351992 34.0845 0.0511988 36.5467 1.43357 38.6203C2.53946 40.2791 4.71669 41.2698 5.66707 41.5578C5.83986 42.2634 6.30641 43.9942 6.79024 45.2729C7.39503 46.8713 8.5614 49.5929 9.38218 50.8024C10.203 52.0119 15.0412 60.6518 26.8778 59.9606C38.7143 59.2694 41.479 52.4008 43.2934 49.5929C44.8008 47.2601 45.7125 43.3002 46.0149 41.5578C46.5765 41.385 47.8465 40.9271 48.4341 40.4778C49.1684 39.9162 49.73 39.3979 50.5076 38.1883C51.2852 36.9787 52.9699 32.1837 50.0324 27.9502C47.0949 23.7166 45.5397 24.9262 44.5029 25.2718C43.4662 25.6174 44.4165 27.6478 45.5397 27.5614C46.6629 27.475 48.0021 29.5918 48.4341 31.2333C48.866 32.8749 48.7365 35.0348 47.6997 37.0652C46.8703 38.6895 44.6469 39.0955 43.639 39.0955C43.4518 40.4635 42.6454 44.2103 40.9174 48.2537C38.7575 53.308 32.9688 57.0663 26.8778 57.0663C18.9292 57.0663 14.998 53.6968 12.0173 49.5929C9.63273 46.3098 8.5182 41.2267 8.259 39.0955C7.48142 39.0091 5.63251 38.6376 4.45749 37.8428Z" fill="#6BAE33"/>
<path d="M19.1638 48.8377C18.7894 48.4201 15.8618 44.9706 16.6567 44.4177C16.9501 44.0375 20.1068 46.9369 20.4597 47.1961C21.2949 47.9449 23.691 49.4339 26.594 49.3993C29.497 49.3647 31.4899 47.9161 32.1235 47.1961C32.4403 46.9513 35.1783 43.9338 35.7313 44.4177C36.2842 44.9015 33.8802 48.3337 33.5922 48.6649C32.4259 50.0062 30.7411 52.2597 26.594 52.4325C22.4469 52.6053 19.9126 49.7449 19.1638 48.8377Z" fill="#6BAE33"/>
<path d="M20.5273 11.3749L21.5463 10.5487V11.7329L21.1057 12.2011C21.2158 13.3578 21.4884 14.2691 22.2348 15.1204C23.2973 16.3321 24.6125 16.938 25.4295 17.3511V8.78613H25.7049V18.1773C24.8879 17.7183 23.0886 17.0206 21.9319 15.5885C21.0705 14.522 20.5916 12.3755 20.5273 11.3749Z" fill="#6BAE33"/>
<path d="M30.8828 11.3749L29.8638 10.5487V11.7329L30.3045 12.2011C30.1943 13.3578 29.9217 14.2691 29.1753 15.1204C28.1128 16.3321 26.7977 16.938 25.9807 17.3511V8.78613H25.7053V18.1773C26.5223 17.7183 28.3216 17.0206 29.4783 15.5885C30.3397 14.522 30.8186 12.3755 30.8828 11.3749Z" fill="#6BAE33"/>
<path d="M25.4291 6.30762V8.31805C25.0711 8.31805 24.8232 8.40067 24.3826 8.65563C24.4046 14.5546 24.3917 15.9008 24.3826 16.0568L22.3997 13.9362V9.48194C21.7112 9.72259 21.0177 10.384 20.582 10.6865V8.40067C21.142 7.99675 21.6561 7.43111 22.8679 6.99612C23.9419 6.61056 24.7406 6.41778 25.4291 6.30762Z" fill="#6BAE33"/>
<path d="M25.9801 6.30762V8.31805C26.3381 8.31805 26.586 8.40067 27.0266 8.65563C27.0046 14.5546 27.0174 15.9008 27.0266 16.0568L29.0095 13.9362V9.48194C29.698 9.72259 30.3915 10.384 30.8271 10.6865V8.40067C30.2672 7.99675 29.7531 7.43111 28.5413 6.99612C27.4673 6.61056 26.6686 6.41778 25.9801 6.30762Z" fill="#6BAE33"/>
<path d="M37.1419 38.7931C37.1419 40.2246 35.9814 38.5667 34.5499 38.5667C33.1185 38.5667 31.958 40.2246 31.958 38.7931C31.958 37.3616 33.1185 36.2012 34.5499 36.2012C35.9814 36.2012 37.1419 37.3616 37.1419 38.7931Z" fill="#6BAE33"/>
<path d="M19.8704 38.7931C19.8704 40.2246 18.71 38.5667 17.2785 38.5667C15.847 38.5667 14.6865 40.2246 14.6865 38.7931C14.6865 37.3616 15.847 36.2012 17.2785 36.2012C18.71 36.2012 19.8704 37.3616 19.8704 38.7931Z" fill="#6BAE33"/>
</svg>
