<svg width="26" height="26" viewBox="0 0 26 26" fill="none" xmlns="http://www.w3.org/2000/svg">
    <path d="M9.75 3.25A3.251 3.251 0 0 1 13 0a3.251 3.251 0 0 1 3.25 3.25A3.251 3.251 0 0 1 13 6.5a3.251 3.251 0 0 1-3.25-3.25zM13 4.875a1.624 1.624 0 1 0 .002-3.248A1.624 1.624 0 0 0 13 4.875zm-4.875 6.5a3.253 3.253 0 0 1 3.25-3.25h3.25a3.253 3.253 0 0 1 3.25 3.25v2.844a1.63 1.63 0 0 1-1.386 1.61l-.452 4.29c-.112 1.031-.98 1.819-2.067 1.819h-1.986a2.035 2.035 0 0 1-2.02-1.819l-.453-4.29a1.63 1.63 0 0 1-1.386-1.61v-2.844zm2.874 3.027.584 5.545c.02.208.193.366.401.366h1.986c.254 0 .426-.158.447-.366L15 14.402l1.203-.183.046-2.89c0-.853-.726-1.625-1.625-1.625h-3.25c-.899 0-1.625.772-1.625 1.625v2.844l1.25.229zm-8.31 6.256c-.427.228-.712.447-.88.635-.164.182-.184.3-.184.35 0 .086.063.34.606.71.516.356 1.316.707 2.378 1.016 2.114.615 5.08 1.006 8.391 1.006 3.31 0 6.277-.391 8.39-1.006 1.066-.31 1.863-.66 2.38-1.015.539-.37.605-.625.605-.711 0-.05-.02-.168-.183-.35-.167-.188-.452-.407-.883-.635-.854-.452-2.133-.864-3.738-1.173-.442-.087-.731-.513-.645-.995.087-.397.513-.686.95-.6 1.686.325 3.143.772 4.194 1.33.528.28.99.605 1.33.945.351.432.6.914.6 1.478 0 .894-.62 1.574-1.31 2.052-.716.492-1.701.903-2.844 1.233C19.546 25.599 16.418 26 13 26s-6.546-.401-8.845-1.072c-1.143-.33-2.128-.74-2.845-1.233C.62 23.216 0 22.537 0 21.643c0-.564.251-1.046.597-1.478.342-.34.806-.665 1.332-.944 1.054-.559 2.507-1.006 4.195-1.33.437-.087.864.202.95.599.04.482-.203.908-.645.995-1.606.31-2.884.72-3.74 1.173z" fill="#6BAE33"/>
</svg>
