<svg width="39" height="46" viewBox="0 0 39 46" fill="none" xmlns="http://www.w3.org/2000/svg">
    <path fill-rule="evenodd" clip-rule="evenodd" d="M38.492 4.973h-14.9S23.592 0 19.246 0 14.9 4.973 14.9 4.973H0V46h38.492V4.973zm-2.484 2.486h-14.9V4.973s.174-2.487-1.862-2.487c-2.173 0-1.863 2.487-1.863 2.487v2.486h-14.9v36.055h33.525V7.459z" fill="#fff"/>
    <path fill-rule="evenodd" clip-rule="evenodd" d="M23.592 4.973h4.966v8.703H9.933V4.973H14.9S14.9 0 19.246 0s4.346 4.973 4.346 4.973zm-11.175 6.216V7.46h4.966V4.973s-.31-2.487 1.863-2.487c2.036 0 1.862 2.487 1.862 2.487v2.486h4.967v3.73H12.417z" fill="#fff"/>
    <path fill="#fff" d="M16.822 19.579h15.112v2.376H16.822zM16.822 25.946h15.112v2.756H16.822zM14.731 32.694h17.203v2.756H14.731zM8.459 32.694h2.281v2.756H8.459zM12.497 23.19l1.662 1.562L9.604 29.6 7.94 28.039l4.556-4.849z"/>
    <path d="m7.846 24.812-1.568 1.657 3.327 3.136 1.506-1.748-3.265-3.045zM12.497 16.487l1.662 1.562-4.555 4.849-1.663-1.562 4.556-4.849z" fill="#fff"/>
    <path d="m7.846 18.11-1.568 1.656 3.327 3.137 1.506-1.75-3.265-3.044z" fill="#fff"/>
</svg>
