<svg width="49" height="50" viewBox="0 0 49 50" fill="none" xmlns="http://www.w3.org/2000/svg">
<path d="M49 25.4524C49 38.9834 38.031 49.9524 24.5 49.9524C10.969 49.9524 0 38.9834 0 25.4524C0 11.9214 10.969 0.952393 24.5 0.952393C38.031 0.952393 49 11.9214 49 25.4524Z" fill="#FF5A04"/>
<path d="M24.7639 26.3935C25.8837 26.3935 26.9577 25.9301 27.7495 25.1053C28.5413 24.2805 28.9861 23.1618 28.9861 21.9954C28.9861 20.8289 28.5413 19.7102 27.7495 18.8854C26.9577 18.0606 25.8837 17.5972 24.7639 17.5972C24.6979 17.5972 24.6399 17.6137 24.5759 17.6172C24.7794 18.2008 24.8188 18.8328 24.6895 19.439C24.5603 20.0452 24.2678 20.6004 23.8462 21.0395C23.4247 21.4785 22.8917 21.7833 22.3098 21.9179C21.7279 22.0525 21.1211 22.0115 20.5608 21.7995C20.5608 21.8682 20.5417 21.9287 20.5417 21.9954C20.5417 22.5729 20.6509 23.1449 20.8631 23.6785C21.0753 24.2121 21.3863 24.6969 21.7783 25.1053C22.5702 25.9301 23.6441 26.3935 24.7639 26.3935ZM43.5344 23.1911C39.9567 15.9197 32.8739 11 24.7639 11C16.6539 11 9.56917 15.9232 5.99346 23.1918C5.84255 23.5028 5.76392 23.8463 5.76392 24.1948C5.76392 24.5432 5.84255 24.8868 5.99346 25.1978C9.57114 32.4691 16.6539 37.3889 24.7639 37.3889C32.8739 37.3889 39.9587 32.4657 43.5344 25.1971C43.6853 24.8861 43.7639 24.5425 43.7639 24.1941C43.7639 23.8457 43.6853 23.5021 43.5344 23.1911V23.1911ZM24.7639 13.1991C26.4341 13.1991 28.0667 13.715 29.4554 14.6815C30.8441 15.6481 31.9264 17.0219 32.5656 18.6292C33.2047 20.2365 33.372 22.0051 33.0461 23.7114C32.7203 25.4178 31.916 26.9851 30.7351 28.2153C29.5541 29.4455 28.0494 30.2832 26.4113 30.6226C24.7733 30.9621 23.0754 30.7879 21.5324 30.1221C19.9893 29.4563 18.6705 28.3289 17.7426 26.8823C16.8147 25.4358 16.3195 23.7351 16.3195 21.9954C16.3219 19.6632 17.2124 17.4273 18.7955 15.7783C20.3786 14.1292 22.5251 13.2016 24.7639 13.1991V13.1991ZM24.7639 35.1898C17.6811 35.1898 11.2092 30.9765 7.875 24.1944C9.75021 20.3597 12.7491 17.2468 16.4369 15.3067C15.06 17.1636 14.2083 19.4644 14.2083 21.9954C14.2083 24.9115 15.3204 27.7082 17.3 29.7703C19.2796 31.8323 21.9644 32.9907 24.7639 32.9907C27.5634 32.9907 30.2483 31.8323 32.2278 29.7703C34.2074 27.7082 35.3195 24.9115 35.3195 21.9954C35.3195 19.4644 34.4678 17.1636 33.0909 15.3067C36.7788 17.2468 39.7776 20.3597 41.6528 24.1944C38.3193 30.9765 31.8467 35.1898 24.7639 35.1898Z" fill="white"/>
</svg>
