<svg width="49" height="57" viewBox="0 0 49 57" fill="none" xmlns="http://www.w3.org/2000/svg">
<path d="M49 25.4524C49 38.9834 38.031 49.9524 24.5 49.9524C10.969 49.9524 0 38.9834 0 25.4524C0 11.9214 10.969 0.952393 24.5 0.952393C38.031 0.952393 49 11.9214 49 25.4524Z" fill="#FF5A04"/>
<path d="M24 42.9524C21.2386 42.9524 19 45.3029 19 48.2024C19 50.3192 19.7023 50.9103 23.4861 56.6699C23.7344 57.0465 24.2655 57.0466 24.5139 56.6699C28.2977 50.9103 29 50.3192 29 48.2024C29 45.3029 26.7614 42.9524 24 42.9524Z" fill="#FF5A04"/>
<path d="M24.7639 27.3935C25.8837 27.3935 26.9577 26.9301 27.7495 26.1053C28.5413 25.2805 28.9861 24.1618 28.9861 22.9954C28.9861 21.8289 28.5413 20.7102 27.7495 19.8854C26.9577 19.0606 25.8837 18.5972 24.7639 18.5972C24.6979 18.5972 24.6399 18.6137 24.5759 18.6172C24.7794 19.2008 24.8188 19.8328 24.6895 20.439C24.5603 21.0452 24.2678 21.6004 23.8462 22.0395C23.4247 22.4785 22.8917 22.7833 22.3098 22.9179C21.7279 23.0525 21.1211 23.0115 20.5608 22.7995C20.5608 22.8682 20.5417 22.9287 20.5417 22.9954C20.5417 23.5729 20.6509 24.1449 20.8631 24.6785C21.0753 25.2121 21.3863 25.6969 21.7783 26.1053C22.5702 26.9301 23.6441 27.3935 24.7639 27.3935ZM43.5344 24.1911C39.9567 16.9197 32.8739 12 24.7639 12C16.6539 12 9.56917 16.9232 5.99346 24.1918C5.84255 24.5028 5.76392 24.8463 5.76392 25.1948C5.76392 25.5432 5.84255 25.8868 5.99346 26.1978C9.57114 33.4691 16.6539 38.3889 24.7639 38.3889C32.8739 38.3889 39.9587 33.4657 43.5344 26.1971C43.6853 25.8861 43.7639 25.5425 43.7639 25.1941C43.7639 24.8457 43.6853 24.5021 43.5344 24.1911V24.1911ZM24.7639 14.1991C26.4341 14.1991 28.0667 14.715 29.4554 15.6815C30.8441 16.6481 31.9264 18.0219 32.5656 19.6292C33.2047 21.2365 33.372 23.0051 33.0461 24.7114C32.7203 26.4178 31.916 27.9851 30.7351 29.2153C29.5541 30.4455 28.0494 31.2832 26.4113 31.6226C24.7733 31.9621 23.0754 31.7879 21.5324 31.1221C19.9893 30.4563 18.6705 29.3289 17.7426 27.8823C16.8147 26.4358 16.3195 24.7351 16.3195 22.9954C16.3219 20.6632 17.2124 18.4273 18.7955 16.7783C20.3786 15.1292 22.5251 14.2016 24.7639 14.1991V14.1991ZM24.7639 36.1898C17.6811 36.1898 11.2092 31.9765 7.875 25.1944C9.75021 21.3597 12.7491 18.2468 16.4369 16.3067C15.06 18.1636 14.2083 20.4644 14.2083 22.9954C14.2083 25.9115 15.3204 28.7082 17.3 30.7703C19.2796 32.8323 21.9644 33.9907 24.7639 33.9907C27.5634 33.9907 30.2483 32.8323 32.2278 30.7703C34.2074 28.7082 35.3195 25.9115 35.3195 22.9954C35.3195 20.4644 34.4678 18.1636 33.0909 16.3067C36.7788 18.2468 39.7776 21.3597 41.6528 25.1944C38.3193 31.9765 31.8467 36.1898 24.7639 36.1898Z" fill="white"/>
</svg>
