<svg width="49" height="50" viewBox="0 0 49 50" fill="none" xmlns="http://www.w3.org/2000/svg">
<path d="M49 25.4524C49 38.9834 38.031 49.9524 24.5 49.9524C10.969 49.9524 0 38.9834 0 25.4524C0 11.9214 10.969 0.952393 24.5 0.952393C38.031 0.952393 49 11.9214 49 25.4524Z" fill="#FF5A04"/>
<path d="M13.6678 11C13.224 11 12.7985 11.1763 12.4847 11.49C12.171 11.8038 11.9947 12.2293 11.9947 12.6731C11.9947 12.9341 12.065 13.1862 12.1687 13.4048C11.9407 13.2931 11.6908 13.2337 11.437 13.2308C10.9933 13.2308 10.5677 13.407 10.2539 13.7208C9.94019 14.0346 9.76392 14.4601 9.76392 14.9038C9.76392 15.3476 9.94019 15.7731 10.2539 16.0869C10.5677 16.4007 10.9933 16.5769 11.437 16.5769C12.0728 16.5769 12.6182 16.2278 12.9015 15.7058L15.9331 18.7731C15.1324 19.9574 14.5974 21.301 14.3649 22.7115C13.999 24.9334 14.4307 27.0292 15.3408 28.8462V29.9615C15.3408 30.7535 15.6375 31.4785 16.1082 32.0529L12.9004 35.2596C12.7519 35.0035 12.5383 34.7913 12.2813 34.6443C12.0243 34.4974 11.733 34.4211 11.437 34.4231C10.9933 34.4231 10.5677 34.5993 10.2539 34.9131C9.94019 35.2269 9.76392 35.6524 9.76392 36.0962C9.76392 36.5399 9.94019 36.9654 10.2539 37.2792C10.5677 37.593 10.9933 37.7692 11.437 37.7692C11.698 37.7692 11.9501 37.699 12.1687 37.5952C12.055 37.8224 11.9955 38.0729 11.9947 38.3269C11.9947 38.7706 12.171 39.1962 12.4847 39.51C12.7985 39.8237 13.224 40 13.6678 40C14.1115 40 14.537 39.8237 14.8508 39.51C15.1646 39.1962 15.3408 38.7706 15.3408 38.3269C15.3408 37.7034 15.0096 37.1502 14.5043 36.8624L18.1293 33.2374C18.3122 33.2687 18.4951 33.3077 18.687 33.3077C18.687 35.1425 20.1983 36.6538 22.0331 36.6538H26.4947C28.3295 36.6538 29.8408 35.1425 29.8408 33.3077C30.0327 33.3077 30.2156 33.2687 30.3985 33.2374L34.0235 36.8624C33.5183 37.1502 33.187 37.7034 33.187 38.3269C33.187 38.7706 33.3633 39.1962 33.677 39.51C33.9908 39.8237 34.4163 40 34.8601 40C35.3038 40 35.7293 39.8237 36.0431 39.51C36.3569 39.1962 36.5331 38.7706 36.5331 38.3269C36.5331 38.0659 36.4629 37.8138 36.3591 37.5952C36.5766 37.699 36.8298 37.7692 37.0908 37.7692C37.5346 37.7692 37.9601 37.593 38.2739 37.2792C38.5876 36.9654 38.7639 36.5399 38.7639 36.0962C38.7639 35.6524 38.5876 35.2269 38.2739 34.9131C37.9601 34.5993 37.5346 34.4231 37.0908 34.4231C36.4673 34.4231 35.9141 34.7543 35.6263 35.2596L32.4196 32.0529C32.9103 31.4659 33.1816 30.7266 33.187 29.9615V28.8807C33.8752 27.5222 34.3024 26.0097 34.3024 24.3846C34.3007 22.3811 33.6929 20.4249 32.559 18.7731L35.6263 15.7058C35.9096 16.2278 36.4551 16.5769 37.0908 16.5769C37.5346 16.5769 37.9601 16.4007 38.2739 16.0869C38.5876 15.7731 38.7639 15.3476 38.7639 14.9038C38.7639 14.4601 38.5876 14.0346 38.2739 13.7208C37.9601 13.407 37.5346 13.2308 37.0908 13.2308C36.8298 13.2308 36.5778 13.301 36.3591 13.4048C36.4629 13.1873 36.5331 12.9341 36.5331 12.6731C36.5331 12.2293 36.3569 11.8038 36.0431 11.49C35.7293 11.1763 35.3038 11 34.8601 11C34.4163 11 33.9908 11.1763 33.677 11.49C33.3633 11.8038 33.187 12.2293 33.187 12.6731C33.187 13.3088 33.5361 13.8543 34.0581 14.1376L31.0956 17.0655C29.227 15.3104 26.7573 14.3374 24.1936 14.3462C23.8233 14.3462 23.4575 14.3718 23.0783 14.4164C20.9539 14.6573 18.9627 15.5733 17.3976 17.0298L14.4697 14.1365C14.9917 13.8554 15.3408 13.3088 15.3408 12.6731C15.3408 12.2293 15.1646 11.8038 14.8508 11.49C14.537 11.1763 14.1115 11 13.6678 11ZM24.2293 16.5769C25.2587 16.5684 26.2795 16.7642 27.2325 17.1531C28.1856 17.542 29.052 18.1163 29.7815 18.8425C30.511 19.5688 31.089 20.4326 31.4822 21.384C31.8753 22.3353 32.0756 23.3553 32.0716 24.3846C32.0716 25.7565 31.7191 27.0292 31.0956 28.149L30.9562 28.4279V29.9615C30.9562 30.5928 30.4721 31.0769 29.8408 31.0769H27.6101V33.3077C27.6101 33.939 27.126 34.4231 26.4947 34.4231H22.0331C21.4018 34.4231 20.9178 33.939 20.9178 33.3077V31.0769H18.687C18.0557 31.0769 17.5716 30.5928 17.5716 29.9615V28.4279L17.4322 28.149C16.5703 26.6014 16.2629 24.8057 16.5611 23.0595C17.1098 19.6967 19.9675 17.0298 23.3582 16.6461C23.6538 16.6126 23.9371 16.5769 24.2282 16.5769H24.2293ZM20.9178 24.3846C20.3261 24.3846 19.7587 24.6196 19.3404 25.038C18.922 25.4563 18.687 26.0237 18.687 26.6154C18.687 27.207 18.922 27.7744 19.3404 28.1928C19.7587 28.6111 20.3261 28.8462 20.9178 28.8462C21.5094 28.8462 22.0768 28.6111 22.4952 28.1928C22.9135 27.7744 23.1485 27.207 23.1485 26.6154C23.1485 26.0237 22.9135 25.4563 22.4952 25.038C22.0768 24.6196 21.5094 24.3846 20.9178 24.3846V24.3846ZM27.6101 24.3846C27.0184 24.3846 26.451 24.6196 26.0327 25.038C25.6143 25.4563 25.3793 26.0237 25.3793 26.6154C25.3793 27.207 25.6143 27.7744 26.0327 28.1928C26.451 28.6111 27.0184 28.8462 27.6101 28.8462C28.2017 28.8462 28.7691 28.6111 29.1875 28.1928C29.6058 27.7744 29.8408 27.207 29.8408 26.6154C29.8408 26.0237 29.6058 25.4563 29.1875 25.038C28.7691 24.6196 28.2017 24.3846 27.6101 24.3846V24.3846ZM23.1485 29.9615V32.1923H25.3793V29.9615H23.1485Z" fill="white"/>
</svg>
