<svg width="49" height="57" viewBox="0 0 49 57" fill="none" xmlns="http://www.w3.org/2000/svg">
<path d="M49 25.4524C49 38.9834 38.031 49.9524 24.5 49.9524C10.969 49.9524 0 38.9834 0 25.4524C0 11.9214 10.969 0.952393 24.5 0.952393C38.031 0.952393 49 11.9214 49 25.4524Z" fill="#FF5A04"/>
<path d="M24 42.9524C21.2386 42.9524 19 45.3029 19 48.2024C19 50.3192 19.7023 50.9103 23.4861 56.6699C23.7344 57.0465 24.2655 57.0466 24.5139 56.6699C28.2977 50.9103 29 50.3192 29 48.2024C29 45.3029 26.7614 42.9524 24 42.9524Z" fill="#FF5A04"/>
<path d="M34.9782 12.75H32.1925V9.70312C32.1925 9.31641 31.8791 9 31.4961 9H31.0318C30.6487 9 30.3353 9.31641 30.3353 9.70312V12.75H19.1925V9.70312C19.1925 9.31641 18.8791 9 18.4961 9H18.0318C17.6487 9 17.3353 9.31641 17.3353 9.70312V12.75H14.5496C13.0117 12.75 11.7639 14.0098 11.7639 15.5625V36.1875C11.7639 37.7402 13.0117 39 14.5496 39H34.9782C36.5161 39 37.7639 37.7402 37.7639 36.1875V15.5625C37.7639 14.0098 36.5161 12.75 34.9782 12.75ZM14.5496 14.625H34.9782C35.4889 14.625 35.9068 15.0469 35.9068 15.5625V18.375H13.6211V15.5625C13.6211 15.0469 14.0389 14.625 14.5496 14.625ZM34.9782 37.125H14.5496C14.0389 37.125 13.6211 36.7031 13.6211 36.1875V20.25H35.9068V36.1875C35.9068 36.7031 35.4889 37.125 34.9782 37.125ZM26.6036 24.8027L28.6117 26.8301C28.7336 26.9531 28.7336 27.1465 28.6117 27.2637L20.9974 34.9512L18.9603 35.2441C18.5599 35.3027 18.2117 34.957 18.2697 34.5469L18.5599 32.4902L26.1742 24.8027C26.2903 24.6855 26.4876 24.6855 26.6036 24.8027ZM30.9679 24.8848L29.8536 26.0098C29.7318 26.1328 29.5403 26.1328 29.4242 26.0098L27.4161 23.9824C27.2943 23.8594 27.2943 23.666 27.4161 23.5488L28.5304 22.4238C28.9251 22.0254 29.5693 22.0254 29.9639 22.4238L30.9679 23.4375C31.3626 23.8359 31.3626 24.4863 30.9679 24.8848Z" fill="white" stroke="white" stroke-width="0.5"/>
</svg>
