<svg width="49" height="57" viewBox="0 0 49 57" fill="none" xmlns="http://www.w3.org/2000/svg">
<path d="M49 25.4524C49 38.9834 38.031 49.9524 24.5 49.9524C10.969 49.9524 0 38.9834 0 25.4524C0 11.9214 10.969 0.952393 24.5 0.952393C38.031 0.952393 49 11.9214 49 25.4524Z" fill="#FF5A04"/>
<path d="M24 42.9524C21.2386 42.9524 19 45.3029 19 48.2024C19 50.3192 19.7023 50.9103 23.4861 56.6699C23.7344 57.0465 24.2655 57.0466 24.5139 56.6699C28.2977 50.9103 29 50.3192 29 48.2024C29 45.3029 26.7614 42.9524 24 42.9524Z" fill="#FF5A04"/>
<path d="M24.2639 9C16.3678 15.9248 10.7639 24.1006 10.7639 29.542C10.7639 38.0527 16.3186 44 24.2639 44C32.2092 44 37.7639 38.0527 37.7639 29.542C37.7639 24.0801 32.1249 15.8975 24.2639 9ZM17.7178 35.332C17.7178 34.4229 18.0131 31.1484 24.2639 24.3125C30.5147 31.1484 30.81 34.4229 30.81 35.332C30.81 38.6475 28.778 41.0811 25.7194 41.6689C25.2413 41.7236 24.7702 41.8125 24.2639 41.8125C23.7577 41.8125 23.2866 41.7305 22.8084 41.6689C19.7499 41.0879 17.7178 38.6475 17.7178 35.332ZM32.6241 38.0459C32.8842 37.1982 33.06 36.3027 33.06 35.332C33.06 29.8018 25.1358 21.9678 24.2639 21.0176C23.3569 22.0088 15.4678 29.8086 15.4678 35.332C15.4678 36.3027 15.6436 37.1982 15.9038 38.0459C14.0897 35.9062 13.0139 32.9873 13.0139 29.542C13.0139 23.335 21.6342 14.79 24.2639 12.3223C26.8936 14.7832 35.5139 23.335 35.5139 29.542C35.5139 32.9873 34.4381 35.9062 32.6241 38.0459Z" fill="white"/>
</svg>
