<svg width="49" height="57" viewBox="0 0 49 57" fill="none" xmlns="http://www.w3.org/2000/svg">
<path d="M49 25.4524C49 38.9834 38.031 49.9524 24.5 49.9524C10.969 49.9524 0 38.9834 0 25.4524C0 11.9214 10.969 0.952393 24.5 0.952393C38.031 0.952393 49 11.9214 49 25.4524Z" fill="#FF5A04"/>
<path d="M24 42.9524C21.2386 42.9524 19 45.3029 19 48.2024C19 50.3192 19.7023 50.9103 23.4861 56.6699C23.7344 57.0465 24.2655 57.0466 24.5139 56.6699C28.2977 50.9103 29 50.3192 29 48.2024C29 45.3029 26.7614 42.9524 24 42.9524Z" fill="#FF5A04"/>
<path d="M13.8896 16.7929C14.093 17.1095 14.4178 17.3248 14.7815 17.3814C15.1337 17.4364 15.5148 17.3327 15.8019 17.0891L18.6544 14.6569C19.0285 14.3381 19.0815 13.7677 18.7742 13.3808C18.4663 12.9922 17.9129 12.9384 17.5437 13.2568L15.0735 15.3627L13.3028 12.6048C12.9932 12.1222 12.448 11.8996 11.8995 12.0429C11.3576 12.1834 10.9731 12.6467 10.9201 13.2199L10.6105 16.5176L7.47588 15.8634C6.92409 15.7439 6.38871 15.996 6.1016 16.4927C5.8145 16.9895 5.85879 17.5984 6.21426 18.0436L8.24642 20.6015L5.58208 22.4361C5.11724 22.7567 4.90505 23.3254 5.04013 23.8856C5.17521 24.4469 5.62145 24.8451 6.17816 24.9018L9.36203 25.2212L8.72985 28.4691C8.63415 28.9596 8.94204 29.4371 9.41508 29.5362C9.47304 29.5486 9.53156 29.5537 9.58953 29.5537C9.9964 29.5537 10.3623 29.2564 10.4459 28.8265L11.1754 25.0739C11.2471 24.7012 11.1634 24.3121 10.9447 24.0068C10.7259 23.7004 10.3907 23.5038 10.0237 23.467L7.59893 23.2235L9.62562 21.8278C9.93351 21.6182 10.1402 21.2806 10.1949 20.9045C10.2227 20.7174 10.212 20.5262 10.1633 20.3436C10.1147 20.1611 10.0293 19.9912 9.91273 19.8453L8.36618 17.898L10.7554 18.3964C11.1076 18.4684 11.4921 18.3834 11.7879 18.1557C12.0838 17.9291 12.2714 17.5814 12.3075 17.2041L12.5415 14.6926L13.8896 16.7929ZM20.3716 24.2934C19.0006 23.9128 17.7674 24.5557 17.4398 25.8222C17.1122 27.0887 17.8697 28.2844 19.2407 28.665L19.7749 28.8191C21.8459 29.394 22.4398 28.3801 22.6094 27.7248C22.9583 26.3744 21.6447 24.6469 20.3716 24.2934ZM20.114 27.5061C19.9286 27.4546 19.7449 27.398 19.5797 27.3521C18.9207 27.1691 18.5713 26.6979 18.7069 26.1745C18.8425 25.6511 19.3719 25.424 20.0314 25.6069C20.6904 25.7899 21.4763 26.8497 21.3406 27.3736C21.2395 27.7656 20.6702 27.6602 20.114 27.5061ZM37.9277 26.1054L37.6942 21.5503C37.5935 19.591 36.2871 17.9218 34.4578 17.4137L25.7768 15.0042C23.947 14.4966 22.01 15.2658 20.977 16.9102L18.5757 20.734C16.7015 20.7998 15.0063 22.0957 14.496 24.0691L12.4578 31.9474C12.0832 33.3958 12.9156 34.8894 14.3139 35.2774L15.1588 35.5119C16.5572 35.8999 17.9993 35.0372 18.3739 33.5895L18.8267 31.8387L32.3496 35.5918L31.8968 37.3426C31.5222 38.7909 32.3546 40.2845 33.7529 40.6725L34.5983 40.907C35.9967 41.295 37.4388 40.4329 37.8134 38.9846L39.8516 31.1063C40.3612 29.1335 39.5191 27.1323 37.9277 26.1054ZM22.4437 17.8986C23.0655 16.909 24.2226 16.4491 25.3235 16.755L34.0045 19.1639C35.1053 19.4692 35.8857 20.4667 35.9464 21.646L36.1383 25.3849L20.4727 21.0371L22.4437 17.8986ZM16.6835 33.121C16.5583 33.6042 16.0776 33.8914 15.6116 33.7617L14.7662 33.5272C14.3008 33.398 14.0224 32.9001 14.1477 32.417L14.6005 30.6662L17.1363 31.3697L16.6835 33.121ZM36.1225 38.5162C35.9972 38.9993 35.5165 39.2859 35.0506 39.1568L34.2052 38.9223C33.7398 38.7932 33.4614 38.2953 33.5866 37.8121L34.0395 36.0613L36.5747 36.7648L36.1225 38.5162ZM38.1606 30.6373L37.4814 33.2638L37.0286 35.0146L34.4928 34.3111L32.8024 33.8421L15.0538 28.9165L16.1864 24.5398C16.561 23.092 18.0031 22.2294 19.4014 22.6174L36.3051 27.3085C37.7024 27.6953 38.5353 29.1895 38.1606 30.6373ZM34.6547 28.2572C33.3816 27.9038 31.4101 28.7194 31.0607 30.0703C30.8911 30.7257 30.9157 31.9112 32.9867 32.4855L33.5238 32.6288C34.8948 33.0095 36.1279 32.3666 36.4555 31.1001C36.7831 29.8336 36.0257 28.6378 34.6547 28.2572ZM35.1879 30.7483C35.0523 31.2717 34.5223 31.4988 33.8634 31.3159C33.6988 31.27 33.5117 31.2241 33.3263 31.1726C32.7702 31.0185 32.2266 30.8146 32.3283 30.4221C32.4639 29.8987 33.6555 29.3872 34.3151 29.5702C34.974 29.7537 35.323 30.2244 35.1879 30.7483Z" fill="white" stroke="white" stroke-width="0.5"/>
</svg>
