<svg width="49" height="50" viewBox="0 0 49 50" fill="none" xmlns="http://www.w3.org/2000/svg">
<path d="M49 25.4524C49 38.9834 38.031 49.9524 24.5 49.9524C10.969 49.9524 0 38.9834 0 25.4524C0 11.9214 10.969 0.952393 24.5 0.952393C38.031 0.952393 49 11.9214 49 25.4524Z" fill="#787878"/>
<path d="M30.4971 39.0705C30.4971 38.0955 30.197 37.1424 29.6347 36.3318C29.0724 35.5211 28.2732 34.8893 27.3382 34.5162C26.4031 34.1431 25.3742 34.0455 24.3816 34.2357C23.3889 34.4259 22.4771 34.8954 21.7615 35.5848C21.0458 36.2742 20.5584 37.1525 20.361 38.1088C20.1635 39.065 20.2649 40.0562 20.6522 40.9569C21.0395 41.8577 21.6954 42.6276 22.5369 43.1692C23.3784 43.7109 24.3678 44 25.3799 44C26.737 44 28.0386 43.4806 28.9983 42.5562C29.958 41.6317 30.4971 40.3779 30.4971 39.0705ZM22.8213 39.0705C22.8213 38.583 22.9713 38.1065 23.2525 37.7011C23.5336 37.2958 23.9332 36.9799 24.4007 36.7933C24.8683 36.6068 25.3827 36.558 25.879 36.6531C26.3754 36.7482 26.8313 36.9829 27.1891 37.3276C27.5469 37.6723 27.7906 38.1115 27.8893 38.5896C27.988 39.0677 27.9374 39.5633 27.7437 40.0137C27.5501 40.4641 27.2221 40.849 26.8014 41.1198C26.3806 41.3907 25.8859 41.5352 25.3799 41.5352C24.7013 41.5352 24.0505 41.2756 23.5707 40.8133C23.0908 40.3511 22.8213 39.7242 22.8213 39.0705Z" fill="white"/>
<path d="M41.5949 37.8311L26.7023 26.2595L23.4461 23.7294L15.0345 17.1936L12.5275 15.2456L8.50639 12.1212C8.2718 11.9332 7.91991 11.9668 7.73362 12.2017L7.04364 13.0409C6.85045 13.2758 6.89185 13.6114 7.12644 13.7927L10.2569 16.2257L12.7112 18.1332L20.4038 24.1119L23.1439 26.2416L40.2149 39.5093C40.4495 39.6973 40.8014 39.657 40.9877 39.4287L41.6777 38.5896C41.8709 38.3547 41.8364 38.019 41.5949 37.8311Z" fill="white"/>
<path fill-rule="evenodd" clip-rule="evenodd" d="M43.525 19.6373L42.7899 20.6331C42.6411 20.7455 42.4424 20.8088 42.2352 20.8098C42.028 20.8108 41.8283 20.7495 41.6777 20.6385C37.187 17.4062 30.9495 15.5105 24.7637 15.5105C21.9238 15.5105 19.3817 15.7259 16.7639 16.5L14.2639 14.5C17.6329 13.3894 20.9898 13.0408 24.7637 13.0408C31.7896 13.0408 38.4198 15.0614 43.5151 18.7459C43.5928 18.803 43.6549 18.8718 43.6977 18.9481C43.7404 19.0244 43.763 19.1067 43.7639 19.1899C43.7648 19.2732 43.7441 19.3558 43.7031 19.4326C43.662 19.5095 43.6014 19.5791 43.525 19.6373ZM12.5275 15.2456C11.7522 15.5436 10.9946 15.8705 10.2569 16.2257L12.7112 18.1332C13.4648 17.7893 14.2404 17.4753 15.0345 17.1936L12.5275 15.2456ZM8.89126 16.9283L11.3077 18.8213C10.1961 19.4055 9.14134 20.0566 8.15593 20.7658C8.00531 20.8768 7.8056 20.9382 7.5984 20.9372C7.39119 20.9362 7.19247 20.8729 7.04364 20.7604L6.00331 19.6373C5.9268 19.5792 5.86616 19.5096 5.82502 19.4328C5.78389 19.3559 5.76311 19.2734 5.76394 19.1901C5.76477 19.1068 5.7872 19.0245 5.82986 18.9482C5.87253 18.8718 5.93456 18.803 6.01221 18.7459C6.92484 18.0859 7.8867 17.4794 8.89126 16.9283Z" fill="white"/>
<path fill-rule="evenodd" clip-rule="evenodd" d="M36.694 28.1246L35.8582 29.0075L35.8512 29.0075C35.7029 29.1171 35.5071 29.1791 35.3028 29.1811C35.0985 29.1831 34.9007 29.125 34.7489 29.0183C33.2588 27.9969 31.7 26.9817 29.7639 26.5L25.8876 23.6914C29.9739 23.8427 33.6101 25.0966 36.6791 27.2263C36.7586 27.2832 36.8222 27.3522 36.8663 27.429C36.9103 27.5058 36.9337 27.5888 36.9351 27.6729C36.9365 27.7571 36.9158 27.8405 36.8743 27.9182C36.8329 27.9959 36.7715 28.0661 36.694 28.1246ZM23.4461 23.7294L26.7023 26.2595C26.0564 26.1944 25.4091 26.1612 24.7676 26.1612C24.2265 26.1612 23.6841 26.1887 23.1439 26.2416L20.4038 24.1119C21.3976 23.9173 22.4153 23.7888 23.4461 23.7294ZM18.5097 24.571C16.4468 25.1704 14.5261 26.066 12.8541 27.2263C12.7747 27.2832 12.711 27.3522 12.667 27.429C12.623 27.5058 12.5996 27.5888 12.5982 27.6729C12.5968 27.7571 12.6175 27.8405 12.6589 27.9182C12.7004 27.9959 12.7618 28.0661 12.8393 28.1246L13.8007 29.1732C13.9495 29.2846 14.1469 29.3476 14.3531 29.3496C14.5593 29.3516 14.7587 29.2924 14.911 29.184C16.6675 27.9799 18.8296 27.0542 21.1157 26.5602L18.5097 24.571Z" fill="white"/>
</svg>
