<svg width="49" height="50" viewBox="0 0 49 50" fill="none" xmlns="http://www.w3.org/2000/svg">
<path d="M49 25.4524C49 38.9834 38.031 49.9524 24.5 49.9524C10.969 49.9524 0 38.9834 0 25.4524C0 11.9214 10.969 0.952393 24.5 0.952393C38.031 0.952393 49 11.9214 49 25.4524Z" fill="#FF0000"/>
<path d="M28.5538 13.2188L29.2262 13.8913C29.3153 13.9806 29.3654 14.1016 29.3654 14.2278C29.3654 14.354 29.3153 14.475 29.2262 14.5643L26.1993 17.5912L29.2262 20.6188C29.4117 20.8043 29.4117 21.1057 29.2262 21.2912L28.5538 21.9637C28.4604 22.0564 28.3391 22.1028 28.2172 22.1028C28.0954 22.1028 27.9735 22.0564 27.8807 21.9637L24.8538 18.9367L21.8269 21.9631C21.7342 22.0558 21.6123 22.1022 21.4904 22.1022C21.3685 22.1022 21.2466 22.0558 21.1539 21.9631L20.4814 21.2906C20.2959 21.1051 20.2959 20.8037 20.4814 20.6182L23.5083 17.5912L20.4814 14.5637C20.2959 14.3782 20.2959 14.0768 20.4814 13.8913L21.1539 13.2188C21.2472 13.1261 21.3685 13.0797 21.4904 13.0797C21.6123 13.0797 21.7342 13.1261 21.8269 13.2188L24.8538 16.2458L27.8807 13.2188C27.9735 13.1261 28.0954 13.0797 28.2172 13.0797C28.3391 13.0797 28.461 13.1261 28.5538 13.2188Z" fill="white" stroke="white" stroke-width="0.5"/>
<path d="M24.885 7C18.8767 7 14.0061 11.8706 14.0061 17.8789C14.0061 22.2652 15.5342 23.4901 23.7669 35.425C24.3072 36.2054 25.4627 36.2055 26.0031 35.425C34.2357 23.4901 35.7639 22.2652 35.7639 17.8789C35.7639 11.8706 30.8932 7 24.885 7ZM24.885 33.8533C16.9924 22.4394 15.8192 21.5332 15.8192 17.8789C15.8192 15.4573 16.7623 13.1807 18.4745 11.4684C20.1868 9.75615 22.4634 8.81315 24.885 8.81315C27.3065 8.81315 29.5831 9.75615 31.2954 11.4684C33.0077 13.1807 33.9507 15.4573 33.9507 17.8789C33.9507 21.5329 32.7783 22.4384 24.885 33.8533Z" fill="white" stroke="white" stroke-width="0.5"/>
<path d="M35.4821 36.2836C35.4821 39.2264 30.6754 41.61 24.741 41.61C18.8066 41.61 14 39.2264 14 36.2836C14 34.5658 15.638 33.0344 18.1756 32.0624L19.0349 33.2741C17.5848 33.8734 16.6853 34.6989 16.6853 35.6178C16.6853 37.4554 20.2969 38.9468 24.741 38.9468C29.1851 38.9468 32.7968 37.4554 32.7968 35.6178C32.7968 34.6989 31.8972 33.8734 30.4472 33.2741L31.3065 32.0624C33.844 33.0344 35.4821 34.5658 35.4821 36.2836Z" fill="white"/>
</svg>
