<svg width="49" height="57" viewBox="0 0 49 57" fill="none" xmlns="http://www.w3.org/2000/svg">
<path d="M49 25.4524C49 38.9834 38.031 49.9524 24.5 49.9524C10.969 49.9524 0 38.9834 0 25.4524C0 11.9214 10.969 0.952393 24.5 0.952393C38.031 0.952393 49 11.9214 49 25.4524Z" fill="#FF0000"/>
<path d="M24 42.9524C21.2386 42.9524 19 45.3029 19 48.2024C19 50.3192 19.7023 50.9103 23.4861 56.6699C23.7344 57.0465 24.2655 57.0466 24.5139 56.6699C28.2977 50.9103 29 50.3192 29 48.2024C29 45.3029 26.7614 42.9524 24 42.9524Z" fill="#FF0000"/>
<path d="M28.5538 14.2188L29.2262 14.8913C29.3153 14.9806 29.3654 15.1016 29.3654 15.2278C29.3654 15.354 29.3153 15.475 29.2262 15.5643L26.1993 18.5912L29.2262 21.6188C29.4117 21.8043 29.4117 22.1057 29.2262 22.2912L28.5538 22.9637C28.4604 23.0564 28.3391 23.1028 28.2172 23.1028C28.0954 23.1028 27.9735 23.0564 27.8807 22.9637L24.8538 19.9367L21.8269 22.9631C21.7342 23.0558 21.6123 23.1022 21.4904 23.1022C21.3685 23.1022 21.2466 23.0558 21.1539 22.9631L20.4814 22.2906C20.2959 22.1051 20.2959 21.8037 20.4814 21.6182L23.5083 18.5912L20.4814 15.5637C20.2959 15.3782 20.2959 15.0768 20.4814 14.8913L21.1539 14.2188C21.2472 14.1261 21.3685 14.0797 21.4904 14.0797C21.6123 14.0797 21.7342 14.1261 21.8269 14.2188L24.8538 17.2458L27.8807 14.2188C27.9735 14.1261 28.0954 14.0797 28.2172 14.0797C28.3391 14.0797 28.461 14.1261 28.5538 14.2188Z" fill="white" stroke="white" stroke-width="0.5"/>
<path d="M24.885 8C18.8767 8 14.0061 12.8706 14.0061 18.8789C14.0061 23.2652 15.5342 24.4901 23.7669 36.425C24.3072 37.2054 25.4627 37.2055 26.0031 36.425C34.2357 24.4901 35.7639 23.2652 35.7639 18.8789C35.7639 12.8706 30.8932 8 24.885 8ZM24.885 34.8533C16.9924 23.4394 15.8192 22.5332 15.8192 18.8789C15.8192 16.4573 16.7623 14.1807 18.4745 12.4684C20.1868 10.7562 22.4634 9.81315 24.885 9.81315C27.3065 9.81315 29.5831 10.7562 31.2954 12.4684C33.0077 14.1807 33.9507 16.4573 33.9507 18.8789C33.9507 22.5329 32.7783 23.4384 24.885 34.8533Z" fill="white" stroke="white" stroke-width="0.5"/>
<path d="M35.4821 37.2836C35.4821 40.2264 30.6754 42.61 24.741 42.61C18.8066 42.61 14 40.2264 14 37.2836C14 35.5658 15.638 34.0344 18.1756 33.0624L19.0349 34.2741C17.5848 34.8734 16.6853 35.6989 16.6853 36.6178C16.6853 38.4554 20.2969 39.9468 24.741 39.9468C29.1851 39.9468 32.7968 38.4554 32.7968 36.6178C32.7968 35.6989 31.8972 34.8734 30.4472 34.2741L31.3065 33.0624C33.844 34.0344 35.4821 35.5658 35.4821 37.2836Z" fill="white"/>
</svg>
