<svg width="49" height="57" viewBox="0 0 49 57" fill="none" xmlns="http://www.w3.org/2000/svg">
<path d="M49 25.4524C49 38.9834 38.031 49.9524 24.5 49.9524C10.969 49.9524 0 38.9834 0 25.4524C0 11.9214 10.969 0.952393 24.5 0.952393C38.031 0.952393 49 11.9214 49 25.4524Z" fill="#FF0000"/>
<path d="M24 42.9524C21.2386 42.9524 19 45.3029 19 48.2024C19 50.3192 19.7023 50.9103 23.4861 56.6699C23.7344 57.0465 24.2655 57.0466 24.5139 56.6699C28.2977 50.9103 29 50.3192 29 48.2024C29 45.3029 26.7614 42.9524 24 42.9524Z" fill="#FF0000"/>
<path d="M17.3302 28.0946C17.3302 23.8456 11.2216 24.8401 11.2216 22.6342C11.2216 21.8387 11.7673 21.459 12.489 21.4771C13.2988 21.4951 13.8622 21.9833 13.915 22.7969H17.1717C17.0485 20.3741 15.2353 19 12.5419 19C9.95406 19 8.03521 20.338 8.03521 22.7427C8 27.2448 14.179 25.9791 14.179 28.3296C14.179 29.0709 13.6157 29.5229 12.7355 29.5229C11.8905 29.5229 11.292 29.0529 11.2039 28.0765H8C8.08802 30.644 10.1653 32 12.8235 32C15.7106 32 17.3302 30.2281 17.3302 28.0946Z" fill="white"/>
<path d="M31.3472 25.491C31.3472 21.6759 28.5481 19 25.0273 19C21.5241 19 18.6722 21.6759 18.6722 25.491C18.6722 29.306 21.5241 32 25.0273 32C28.5305 32 31.3472 29.306 31.3472 25.491ZM21.7529 25.491C21.7529 23.2309 23.0204 21.8025 25.0273 21.8025C26.999 21.8025 28.2841 23.2309 28.2841 25.491C28.2841 27.7149 26.999 29.1794 25.0273 29.1794C23.0204 29.1794 21.7529 27.7149 21.7529 25.491Z" fill="white"/>
<path d="M42 28.0946C42 23.8456 35.8914 24.8401 35.8914 22.6342C35.8914 21.8387 36.4371 21.459 37.1589 21.4771C37.9687 21.4951 38.532 21.9833 38.5848 22.7969H41.8416C41.7183 20.3741 39.9051 19 37.2117 19C34.6239 19 32.705 20.338 32.705 22.7427C32.6698 27.2448 38.8489 25.9791 38.8489 28.3296C38.8489 29.0709 38.2855 29.5229 37.4053 29.5229C36.5603 29.5229 35.9618 29.0529 35.8738 28.0765H32.6698C32.7578 30.644 34.8351 32 37.4933 32C40.3804 32 42 30.2281 42 28.0946Z" fill="white"/>
</svg>
