<svg width="49" height="50" viewBox="0 0 49 50" fill="none" xmlns="http://www.w3.org/2000/svg">
<path d="M49 25.4524C49 38.9834 38.031 49.9524 24.5 49.9524C10.969 49.9524 0 38.9834 0 25.4524C0 11.9214 10.969 0.952393 24.5 0.952393C38.031 0.952393 49 11.9214 49 25.4524Z" fill="#7DC144"/>
<path d="M22.6353 23.9665C22.1212 23.9665 21.6375 24.0855 21.1983 24.2873L15.9273 17.7438C15.6271 17.3684 15.0793 17.3117 14.7058 17.614C14.3323 17.9173 14.2748 18.4672 14.5766 18.8415L19.8503 25.3883C19.4225 25.9688 19.1608 26.6802 19.1608 27.4582C19.1608 29.3868 20.7162 30.9498 22.6353 30.9498C24.5545 30.9498 26.1099 29.3868 26.1099 27.4582C26.1099 25.5296 24.5545 23.9665 22.6353 23.9665ZM22.6353 29.204C21.6761 29.204 20.8981 28.4222 20.8981 27.4582C20.8981 26.4942 21.6761 25.7124 22.6353 25.7124C23.5946 25.7124 24.3726 26.4942 24.3726 27.4582C24.3726 28.4222 23.5946 29.204 22.6353 29.204Z" fill="white"/>
<path d="M22.6353 10C14.0001 10 7 17.0346 7 25.7124C7 28.593 7.77362 31.2913 9.12054 33.6122C9.42511 34.137 10.0055 34.4415 10.6102 34.4415H22.6353L22.6408 32.7142L10.6211 32.7327C9.38873 30.6088 8.73726 28.1816 8.73726 25.7124C8.73726 18.0111 14.9719 11.7458 22.6353 11.7458C27.8152 11.7458 32.3422 14.6081 34.7324 18.8415L36.3094 18.0872C33.6403 13.2637 28.5171 10 22.6353 10Z" fill="white"/>
<path d="M22.6353 23.9665C22.1212 23.9665 21.6375 24.0855 21.1983 24.2873L15.9273 17.7438C15.6271 17.3684 15.0793 17.3117 14.7058 17.614C14.3323 17.9173 14.2748 18.4672 14.5766 18.8415L19.8503 25.3883C19.4225 25.9688 19.1608 26.6802 19.1608 27.4582C19.1608 29.3868 20.7162 30.9498 22.6353 30.9498C24.5545 30.9498 26.1099 29.3868 26.1099 27.4582C26.1099 25.5296 24.5545 23.9665 22.6353 23.9665ZM22.6353 29.204C21.6761 29.204 20.8981 28.4222 20.8981 27.4582C20.8981 26.4942 21.6761 25.7124 22.6353 25.7124C23.5946 25.7124 24.3726 26.4942 24.3726 27.4582C24.3726 28.4222 23.5946 29.204 22.6353 29.204Z" stroke="white" stroke-width="0.5"/>
<path d="M22.6353 10C14.0001 10 7 17.0346 7 25.7124C7 28.593 7.77362 31.2913 9.12054 33.6122C9.42511 34.137 10.0055 34.4415 10.6102 34.4415H22.6353L22.6408 32.7142L10.6211 32.7327C9.38873 30.6088 8.73726 28.1816 8.73726 25.7124C8.73726 18.0111 14.9719 11.7458 22.6353 11.7458C27.8152 11.7458 32.3422 14.6081 34.7324 18.8415L36.3094 18.0872C33.6403 13.2637 28.5171 10 22.6353 10Z" stroke="white" stroke-width="0.5"/>
<path d="M32.8402 24.6919H33.9921C34.1025 24.6919 34.1901 24.7824 34.1868 24.8922L33.9435 31.2215C33.9402 31.3249 33.8526 31.4088 33.7488 31.4088H33.0835C32.9797 31.4088 32.8921 31.3281 32.8888 31.2215L32.6455 24.8922C32.6422 24.7824 32.7298 24.6919 32.8402 24.6919ZM33.4178 32.0547C32.9148 32.0547 32.5092 32.4584 32.5092 32.9589C32.5092 33.4594 32.9148 33.8631 33.4178 33.8631C33.9208 33.8631 34.3264 33.4594 34.3264 32.9589C34.3264 32.4584 33.9208 32.0547 33.4178 32.0547ZM42.5525 33.7339L34.7677 20.3001C34.1706 19.2667 32.6682 19.2667 32.0679 20.3001L24.2831 33.7339C23.686 34.7641 24.4323 36.059 25.633 36.059H41.2058C42.4 36.059 43.1528 34.7673 42.5525 33.7339ZM41.2058 35.0256H25.6297C25.2306 35.0256 24.9807 34.5961 25.1787 34.2506L32.9667 20.8168C33.1647 20.4745 33.6676 20.4713 33.8656 20.8168L41.6536 34.2506C41.8548 34.5929 41.605 35.0256 41.2058 35.0256Z" fill="white" stroke="white" stroke-width="0.5"/>
</svg>
