<svg width="49" height="57" viewBox="0 0 49 57" fill="none" xmlns="http://www.w3.org/2000/svg">
<path d="M49 25.4524C49 38.9834 38.031 49.9524 24.5 49.9524C10.969 49.9524 0 38.9834 0 25.4524C0 11.9214 10.969 0.952393 24.5 0.952393C38.031 0.952393 49 11.9214 49 25.4524Z" fill="#7DC144"/>
<path d="M24 42.9524C21.2386 42.9524 19 45.3029 19 48.2024C19 50.3192 19.7023 50.9103 23.4861 56.6699C23.7344 57.0465 24.2655 57.0466 24.5139 56.6699C28.2977 50.9103 29 50.3192 29 48.2024C29 45.3029 26.7614 42.9524 24 42.9524Z" fill="#7DC144"/>
<path d="M23.6353 24.9665C23.1212 24.9665 22.6375 25.0855 22.1983 25.2873L16.9273 18.7438C16.6271 18.3684 16.0793 18.3117 15.7058 18.614C15.3323 18.9173 15.2748 19.4672 15.5766 19.8415L20.8503 26.3883C20.4225 26.9688 20.1608 27.6802 20.1608 28.4582C20.1608 30.3868 21.7162 31.9498 23.6353 31.9498C25.5545 31.9498 27.1099 30.3868 27.1099 28.4582C27.1099 26.5296 25.5545 24.9665 23.6353 24.9665ZM23.6353 30.204C22.6761 30.204 21.8981 29.4222 21.8981 28.4582C21.8981 27.4942 22.6761 26.7124 23.6353 26.7124C24.5946 26.7124 25.3726 27.4942 25.3726 28.4582C25.3726 29.4222 24.5946 30.204 23.6353 30.204Z" fill="white"/>
<path d="M23.6353 11C15.0001 11 8 18.0346 8 26.7124C8 29.593 8.77362 32.2913 10.1205 34.6122C10.4251 35.137 11.0055 35.4415 11.6102 35.4415H23.6353L23.6408 33.7142L11.6211 33.7327C10.3887 31.6088 9.73726 29.1816 9.73726 26.7124C9.73726 19.0111 15.9719 12.7458 23.6353 12.7458C28.8152 12.7458 33.3422 15.6081 35.7324 19.8415L37.3094 19.0872C34.6403 14.2637 29.5171 11 23.6353 11Z" fill="white"/>
<path d="M23.6353 24.9665C23.1212 24.9665 22.6375 25.0855 22.1983 25.2873L16.9273 18.7438C16.6271 18.3684 16.0793 18.3117 15.7058 18.614C15.3323 18.9173 15.2748 19.4672 15.5766 19.8415L20.8503 26.3883C20.4225 26.9688 20.1608 27.6802 20.1608 28.4582C20.1608 30.3868 21.7162 31.9498 23.6353 31.9498C25.5545 31.9498 27.1099 30.3868 27.1099 28.4582C27.1099 26.5296 25.5545 24.9665 23.6353 24.9665ZM23.6353 30.204C22.6761 30.204 21.8981 29.4222 21.8981 28.4582C21.8981 27.4942 22.6761 26.7124 23.6353 26.7124C24.5946 26.7124 25.3726 27.4942 25.3726 28.4582C25.3726 29.4222 24.5946 30.204 23.6353 30.204Z" stroke="white" stroke-width="0.5"/>
<path d="M23.6353 11C15.0001 11 8 18.0346 8 26.7124C8 29.593 8.77362 32.2913 10.1205 34.6122C10.4251 35.137 11.0055 35.4415 11.6102 35.4415H23.6353L23.6408 33.7142L11.6211 33.7327C10.3887 31.6088 9.73726 29.1816 9.73726 26.7124C9.73726 19.0111 15.9719 12.7458 23.6353 12.7458C28.8152 12.7458 33.3422 15.6081 35.7324 19.8415L37.3094 19.0872C34.6403 14.2637 29.5171 11 23.6353 11Z" stroke="white" stroke-width="0.5"/>
<path d="M33.8402 25.6919H34.9921C35.1025 25.6919 35.1901 25.7823 35.1868 25.8921L34.9435 32.2215C34.9402 32.3249 34.8526 32.4088 34.7488 32.4088H34.0835C33.9797 32.4088 33.8921 32.3281 33.8888 32.2215L33.6455 25.8921C33.6422 25.7823 33.7298 25.6919 33.8402 25.6919ZM34.4178 33.0547C33.9148 33.0547 33.5092 33.4583 33.5092 33.9589C33.5092 34.4594 33.9148 34.8631 34.4178 34.8631C34.9208 34.8631 35.3264 34.4594 35.3264 33.9589C35.3264 33.4583 34.9208 33.0547 34.4178 33.0547ZM43.5525 34.7339L35.7677 21.3001C35.1706 20.2667 33.6682 20.2667 33.0679 21.3001L25.2831 34.7339C24.686 35.764 25.4323 37.059 26.633 37.059H42.2058C43.4 37.059 44.1528 35.7673 43.5525 34.7339ZM42.2058 36.0256H26.6297C26.2306 36.0256 25.9807 35.5961 26.1787 35.2506L33.9667 21.8168C34.1647 21.4745 34.6676 21.4712 34.8656 21.8168L42.6536 35.2506C42.8548 35.5929 42.605 36.0256 42.2058 36.0256Z" fill="white" stroke="white" stroke-width="0.5"/>
</svg>
