<svg width="49" height="50" viewBox="0 0 49 50" fill="none" xmlns="http://www.w3.org/2000/svg">
<path d="M49 25.4524C49 38.9834 38.031 49.9524 24.5 49.9524C10.969 49.9524 0 38.9834 0 25.4524C0 11.9214 10.969 0.952393 24.5 0.952393C38.031 0.952393 49 11.9214 49 25.4524Z" fill="#7DC144"/>
<path fill-rule="evenodd" clip-rule="evenodd" d="M29.8304 37.4924L21.2511 34.4628C20.6108 34.234 20.2363 34.2307 19.5352 34.4682L11.8085 37.3208C10.5364 37.7566 10.1424 38.0168 10.098 38.3929V38.5541C10.098 39.0474 10.5002 39.412 10.9559 39.412C11.0632 39.412 11.1704 39.3905 11.2777 39.3476L20.3932 35.9803L29.6159 39.235C30.313 39.4656 31.0637 39.471 31.7607 39.2458L39.9057 36.4092C40.5294 35.9803 40.4473 34.7953 39.3427 34.7953L31.5462 37.5031C30.8445 37.8061 30.4719 37.775 29.8304 37.4924Z" fill="white"/>
<path d="M10.098 38.5541C10.098 39.0474 10.5002 39.412 10.9559 39.412C11.0632 39.412 11.1704 39.3905 11.2777 39.3476L20.3932 35.9803L29.6159 39.235C30.313 39.4656 31.0637 39.471 31.7607 39.2458L39.9057 36.4092C40.5294 35.9803 40.4473 34.7953 39.3427 34.7953L31.5462 37.5031C30.8445 37.8061 30.4719 37.775 29.8304 37.4924L21.2511 34.4628C20.6108 34.234 20.2363 34.2307 19.5352 34.4682L11.8085 37.3208C10.5364 37.7566 10.1424 38.0168 10.098 38.3929M10.098 38.5541V38.3929M10.098 38.5541C10.0924 38.4977 10.0919 38.4442 10.098 38.3929" stroke="white" stroke-width="0.5"/>
<path d="M17.1888 15.2108L17.7523 15.7742C17.8269 15.8491 17.8689 15.9505 17.8689 16.0562C17.8689 16.1619 17.8269 16.2633 17.7523 16.3382L15.216 18.8744L17.7523 21.4112C17.9077 21.5666 17.9077 21.8192 17.7523 21.9747L17.1888 22.5381C17.1106 22.6158 17.009 22.6547 16.9069 22.6547C16.8047 22.6547 16.7026 22.6158 16.6249 22.5381L14.0886 20.0018L11.5523 22.5376C11.4746 22.6153 11.3725 22.6542 11.2704 22.6542C11.1682 22.6542 11.0661 22.6153 10.9884 22.5376L10.4249 21.9742C10.2695 21.8187 10.2695 21.5661 10.4249 21.4107L12.9612 18.8744L10.4249 16.3377C10.2695 16.1822 10.2695 15.9296 10.4249 15.7742L10.9884 15.2108C11.0666 15.133 11.1682 15.0942 11.2704 15.0942C11.3725 15.0942 11.4746 15.133 11.5523 15.2108L14.0886 17.747L16.6249 15.2108C16.7026 15.133 16.8047 15.0942 16.9069 15.0942C17.009 15.0942 17.1111 15.133 17.1888 15.2108Z" fill="white" stroke="white" stroke-width="0.5"/>
<path d="M14.1155 10C9.08113 10 5 14.0811 5 19.1155C5 22.7908 6.28044 23.8172 13.1787 33.8176C13.6313 34.4714 14.5996 34.4715 15.0524 33.8176C21.9506 23.8172 23.231 22.7908 23.231 19.1155C23.231 14.0811 19.1499 10 14.1155 10ZM14.1155 32.5006C7.50225 22.9368 6.51925 22.1775 6.51925 19.1155C6.51925 17.0865 7.3094 15.1789 8.74415 13.7441C10.1789 12.3094 12.0864 11.5193 14.1155 11.5193C16.1446 11.5193 18.0521 12.3094 19.4869 13.7441C20.9216 15.1789 21.7118 17.0865 21.7118 19.1155C21.7118 22.1773 20.7294 22.936 14.1155 32.5006Z" fill="white" stroke="white" stroke-width="0.5"/>
<path d="M34.5987 10C29.5643 10 25.4832 14.0811 25.4832 19.1155C25.4832 22.7908 26.7636 23.8172 33.6619 33.8176C34.1145 34.4714 35.0828 34.4715 35.5355 33.8176C42.4337 23.8172 43.7142 22.7908 43.7142 19.1155C43.7142 14.0811 39.633 10 34.5987 10ZM34.5987 32.5006C27.9854 22.9368 27.0024 22.1775 27.0024 19.1155C27.0024 17.0865 27.7926 15.1789 29.2273 13.7441C30.662 12.3094 32.5696 11.5193 34.5987 11.5193C36.6277 11.5193 38.5353 12.3094 39.97 13.7441C41.4048 15.1789 42.1949 17.0865 42.1949 19.1155C42.1949 22.1773 41.2125 22.936 34.5987 32.5006Z" fill="white" stroke="white" stroke-width="0.5"/>
</svg>
