<svg width="49" height="50" viewBox="0 0 49 50" fill="none" xmlns="http://www.w3.org/2000/svg">
<path d="M49 25.4524C49 38.9834 38.031 49.9524 24.5 49.9524C10.969 49.9524 0 38.9834 0 25.4524C0 11.9214 10.969 0.952393 24.5 0.952393C38.031 0.952393 49 11.9214 49 25.4524Z" fill="#7DC144"/>
<path fill-rule="evenodd" clip-rule="evenodd" d="M29.8305 38.4924L21.2512 35.4628C20.6109 35.234 20.2364 35.2307 19.5354 35.4682L11.8086 38.3208C10.5365 38.7566 10.1425 39.0168 10.0981 39.3929V39.5541C10.0981 40.0474 10.5003 40.412 10.9561 40.412C11.0633 40.412 11.1705 40.3905 11.2778 40.3476L20.3933 36.9803L29.616 40.235C30.3131 40.4656 31.0638 40.471 31.7608 40.2458L39.9058 37.4092C40.5296 36.9803 40.4474 35.7953 39.3428 35.7953L31.5464 38.5031C30.8446 38.8061 30.472 38.775 29.8305 38.4924Z" fill="white"/>
<path d="M10.0981 39.5541C10.0981 40.0474 10.5003 40.412 10.9561 40.412C11.0633 40.412 11.1705 40.3905 11.2778 40.3476L20.3933 36.9803L29.616 40.235C30.3131 40.4656 31.0638 40.471 31.7608 40.2458L39.9058 37.4092C40.5296 36.9803 40.4474 35.7953 39.3428 35.7953L31.5464 38.5031C30.8446 38.8061 30.472 38.775 29.8305 38.4924L21.2512 35.4628C20.6109 35.234 20.2364 35.2307 19.5354 35.4682L11.8086 38.3208C10.5365 38.7566 10.1425 39.0168 10.0981 39.3929M10.0981 39.5541V39.3929M10.0981 39.5541C10.0925 39.4977 10.0921 39.4442 10.0981 39.3929" stroke="white" stroke-width="0.5"/>
<path d="M37.672 16.2108L38.2354 16.7742C38.3101 16.8491 38.352 16.9505 38.352 17.0562C38.352 17.1619 38.3101 17.2633 38.2354 17.3382L35.6992 19.8744L38.2354 22.4112C38.3909 22.5666 38.3909 22.8192 38.2354 22.9747L37.672 23.5381C37.5938 23.6158 37.4921 23.6547 37.39 23.6547C37.2879 23.6547 37.1857 23.6158 37.108 23.5381L34.5718 21.0018L32.0355 23.5376C31.9578 23.6153 31.8556 23.6542 31.7535 23.6542C31.6514 23.6542 31.5492 23.6153 31.4715 23.5376L30.9081 22.9742C30.7526 22.8187 30.7526 22.5661 30.9081 22.4107L33.4444 19.8744L30.9081 17.3377C30.7526 17.1822 30.7526 16.9296 30.9081 16.7742L31.4715 16.2108C31.5497 16.133 31.6514 16.0942 31.7535 16.0942C31.8556 16.0942 31.9578 16.133 32.0355 16.2108L34.5718 18.747L37.108 16.2108C37.1857 16.133 37.2879 16.0942 37.39 16.0942C37.4921 16.0942 37.5943 16.133 37.672 16.2108Z" fill="white" stroke="white" stroke-width="0.5"/>
<path d="M34.5987 11C29.5643 11 25.4832 15.0811 25.4832 20.1155C25.4832 23.7908 26.7636 24.8172 33.6619 34.8176C34.1145 35.4714 35.0828 35.4715 35.5355 34.8176C42.4337 24.8172 43.7142 23.7908 43.7142 20.1155C43.7142 15.0811 39.633 11 34.5987 11ZM34.5987 33.5006C27.9854 23.9368 27.0024 23.1775 27.0024 20.1155C27.0024 18.0865 27.7926 16.1789 29.2273 14.7441C30.662 13.3094 32.5696 12.5193 34.5987 12.5193C36.6277 12.5193 38.5353 13.3094 39.97 14.7441C41.4048 16.1789 42.1949 18.0865 42.1949 20.1155C42.1949 23.1773 41.2125 23.936 34.5987 33.5006Z" fill="white" stroke="white" stroke-width="0.5"/>
<path d="M14.1155 11C9.08113 11 5 15.0811 5 20.1155C5 23.7908 6.28044 24.8172 13.1787 34.8176C13.6313 35.4714 14.5996 35.4715 15.0524 34.8176C21.9506 24.8172 23.231 23.7908 23.231 20.1155C23.231 15.0811 19.1499 11 14.1155 11ZM14.1155 33.5006C7.50225 23.9368 6.51925 23.1775 6.51925 20.1155C6.51925 18.0865 7.3094 16.1789 8.74415 14.7441C10.1789 13.3094 12.0864 12.5193 14.1155 12.5193C16.1446 12.5193 18.0521 13.3094 19.4869 14.7441C20.9216 16.1789 21.7118 18.0865 21.7118 20.1155C21.7118 23.1773 20.7294 23.936 14.1155 33.5006Z" fill="white" stroke="white" stroke-width="0.5"/>
</svg>
