<svg width="49" height="57" viewBox="0 0 49 57" fill="none" xmlns="http://www.w3.org/2000/svg">
<path d="M49 25.4524C49 38.9834 38.031 49.9524 24.5 49.9524C10.969 49.9524 0 38.9834 0 25.4524C0 11.9214 10.969 0.952393 24.5 0.952393C38.031 0.952393 49 11.9214 49 25.4524Z" fill="#7DC144"/>
<path d="M24 42.9524C21.2386 42.9524 19 45.3029 19 48.2024C19 50.3192 19.7023 50.9103 23.4861 56.6699C23.7344 57.0465 24.2655 57.0466 24.5139 56.6699C28.2977 50.9103 29 50.3192 29 48.2024C29 45.3029 26.7614 42.9524 24 42.9524Z" fill="#7DC144"/>
<path fill-rule="evenodd" clip-rule="evenodd" d="M29.8304 38.4924L21.2511 35.4628C20.6108 35.234 20.2363 35.2307 19.5352 35.4682L11.8085 38.3208C10.5364 38.7566 10.1424 39.0168 10.098 39.3929V39.5541C10.098 40.0474 10.5002 40.412 10.9559 40.412C11.0632 40.412 11.1704 40.3905 11.2777 40.3476L20.3932 36.9803L29.6159 40.235C30.313 40.4656 31.0637 40.471 31.7607 40.2458L39.9057 37.4092C40.5294 36.9803 40.4473 35.7953 39.3427 35.7953L31.5462 38.5031C30.8445 38.8061 30.4719 38.775 29.8304 38.4924Z" fill="white"/>
<path d="M10.098 39.5541C10.098 40.0474 10.5002 40.412 10.9559 40.412C11.0632 40.412 11.1704 40.3905 11.2777 40.3476L20.3932 36.9803L29.6159 40.235C30.313 40.4656 31.0637 40.471 31.7607 40.2458L39.9057 37.4092C40.5294 36.9803 40.4473 35.7953 39.3427 35.7953L31.5462 38.5031C30.8445 38.8061 30.4719 38.775 29.8304 38.4924L21.2511 35.4628C20.6108 35.234 20.2363 35.2307 19.5352 35.4682L11.8085 38.3208C10.5364 38.7566 10.1424 39.0168 10.098 39.3929M10.098 39.5541V39.3929M10.098 39.5541C10.0924 39.4977 10.0919 39.4442 10.098 39.3929" stroke="white" stroke-width="0.5"/>
<path d="M17.1888 16.2108L17.7523 16.7742C17.8269 16.8491 17.8689 16.9505 17.8689 17.0562C17.8689 17.1619 17.8269 17.2633 17.7523 17.3382L15.216 19.8744L17.7523 22.4112C17.9077 22.5666 17.9077 22.8192 17.7523 22.9747L17.1888 23.5381C17.1106 23.6158 17.009 23.6547 16.9069 23.6547C16.8047 23.6547 16.7026 23.6158 16.6249 23.5381L14.0886 21.0018L11.5523 23.5376C11.4746 23.6153 11.3725 23.6542 11.2704 23.6542C11.1682 23.6542 11.0661 23.6153 10.9884 23.5376L10.4249 22.9742C10.2695 22.8187 10.2695 22.5661 10.4249 22.4107L12.9612 19.8744L10.4249 17.3377C10.2695 17.1822 10.2695 16.9296 10.4249 16.7742L10.9884 16.2108C11.0666 16.133 11.1682 16.0942 11.2704 16.0942C11.3725 16.0942 11.4746 16.133 11.5523 16.2108L14.0886 18.747L16.6249 16.2108C16.7026 16.133 16.8047 16.0942 16.9069 16.0942C17.009 16.0942 17.1111 16.133 17.1888 16.2108Z" fill="white" stroke="white" stroke-width="0.5"/>
<path d="M14.1155 11C9.08113 11 5 15.0811 5 20.1155C5 23.7908 6.28044 24.8172 13.1787 34.8176C13.6313 35.4714 14.5996 35.4715 15.0524 34.8176C21.9506 24.8172 23.231 23.7908 23.231 20.1155C23.231 15.0811 19.1499 11 14.1155 11ZM14.1155 33.5006C7.50225 23.9368 6.51925 23.1775 6.51925 20.1155C6.51925 18.0865 7.3094 16.1789 8.74415 14.7441C10.1789 13.3094 12.0864 12.5193 14.1155 12.5193C16.1446 12.5193 18.0521 13.3094 19.4869 14.7441C20.9216 16.1789 21.7118 18.0865 21.7118 20.1155C21.7118 23.1773 20.7294 23.936 14.1155 33.5006Z" fill="white" stroke="white" stroke-width="0.5"/>
<path d="M34.5987 11C29.5643 11 25.4832 15.0811 25.4832 20.1155C25.4832 23.7908 26.7636 24.8172 33.6619 34.8176C34.1145 35.4714 35.0828 35.4715 35.5355 34.8176C42.4337 24.8172 43.7142 23.7908 43.7142 20.1155C43.7142 15.0811 39.633 11 34.5987 11ZM34.5987 33.5006C27.9854 23.9368 27.0024 23.1775 27.0024 20.1155C27.0024 18.0865 27.7926 16.1789 29.2273 14.7441C30.662 13.3094 32.5696 12.5193 34.5987 12.5193C36.6277 12.5193 38.5353 13.3094 39.97 14.7441C41.4048 16.1789 42.1949 18.0865 42.1949 20.1155C42.1949 23.1773 41.2125 23.936 34.5987 33.5006Z" fill="white" stroke="white" stroke-width="0.5"/>
</svg>
